<?xml version="1.0" encoding="utf-8"?>
<!-- Generator: Adobe Illustrator 19.1.0, SVG Export Plug-In . SVG Version: 6.00 Build 0)  -->
<svg version="1.1" id="Layer_1" xmlns="http://www.w3.org/2000/svg" xmlns:xlink="http://www.w3.org/1999/xlink" x="0px" y="0px"
	 viewBox="0 0 100 100" style="enable-background:new 0 0 100 100;" xml:space="preserve">
<style type="text/css">
	.st0{fill:#8C36E3;}
</style>
<g>
	<path class="st0" d="M74.2,51.6c0,0-7.6-0.8-17.8,10.2S38.7,81.2,37.7,82.4c-1,1.2-3.7,3.1-4.5,11.5c-0.8,8.4-13.7,3.7-10-11.1
		c2.1-7.8,6.1-15.2,6.2-17.4c0.2-2.1-0.6-5.5-6.2-5.9c-5.7-0.4-16.8,1.6-18.9-2.7s-3.1-11.7,6.4-14.1c-6.4-2.3-9.2-15,3.1-15.8
		c-6.1-3.5-7.4-16.4,7.2-13.3C15.8,10.8,15-0.4,27.1,2.6S64.8,7.6,67.7,11c5.1,0,6.4,0,6.4,0V51.6z"/>
	<rect x="77.1" y="10.6" class="st0" width="18" height="41.2"/>
</g>
</svg>
