<?xml version="1.0" encoding="utf-8"?>
<!-- Generator: Adobe Illustrator 19.1.0, SVG Export Plug-In . SVG Version: 6.00 Build 0)  -->
<svg version="1.1" id="Layer_1" xmlns="http://www.w3.org/2000/svg" xmlns:xlink="http://www.w3.org/1999/xlink" x="0px" y="0px"
	 viewBox="0 0 100 100" style="enable-background:new 0 0 100 100;" xml:space="preserve">
<style type="text/css">
	.st0{fill:#FFFFFF;}
</style>
<path class="st0" d="M67.8,41.8L67.8,41.8c-0.2-9.7-8-17.5-17.8-17.5s-17.6,7.8-17.7,17.5h0c0,0,0,0.1,0,0.1c0,0,0,0.1,0,0.1
	c0,0.3,0,0.5,0,0.8c0,0.1,0,0.3,0,0.4c0.1,1.2,0.3,2.3,0.6,3.4C36,59.6,50,73.2,50,73.2h0c0,0,14.1-13.7,17.2-26.8
	c0.3-1,0.4-2.1,0.5-3.2c0-0.2,0-0.4,0-0.7c0-0.2,0-0.4,0-0.6c0,0,0-0.1,0-0.1C67.7,41.9,67.8,41.8,67.8,41.8z M50,54.8
	c-6.9,0-12.5-5.6-12.5-12.5c0-6.9,5.6-12.5,12.5-12.5s12.5,5.6,12.5,12.5C62.5,49.2,56.9,54.8,50,54.8z"/>
</svg>
