<?xml version="1.0" encoding="utf-8"?>
<!-- Generator: Adobe Illustrator 19.1.0, SVG Export Plug-In . SVG Version: 6.00 Build 0)  -->
<svg version="1.1" id="Layer_1" xmlns="http://www.w3.org/2000/svg" xmlns:xlink="http://www.w3.org/1999/xlink" x="0px" y="0px"
	 viewBox="0 0 100 100" style="enable-background:new 0 0 100 100;" xml:space="preserve">
<style type="text/css">
	.st0{fill:#8C36E3;}
</style>
<g>
	<path class="st0" d="M97.2,78.9c-0.6,2.5-2.2,3.8-4.5,4.5c-4,1.3-8,2.8-11.9,4.2c-3.2,1.1-5.8,0-7.1-3.1c-3.7-8.5-7.3-17-10.9-25.5
		c-0.3-0.6-0.5-0.8-1.2-0.8c-10.7-0.1-21.3-0.1-32-0.2c-2.6,0-4.6-1.2-5.2-3.3c-0.5-1.5-0.6-3.1-0.9-4.7c-1.3-8-2.6-16.1-3.9-24.2
		c-0.6-4-1.4-8.1-1.9-12.1c-0.7-5.3,3.3-10.4,8.6-11.3c0.2,0,0.3-0.1,0.5-0.2c0.9,0,1.7,0,2.6,0c0.7,0.2,1.5,0.3,2.2,0.6
		c4.7,1.7,7.4,5.9,7,11c-0.3,4.5-3.9,8.4-8.6,9.3c-0.1,0-0.3,0.1-0.5,0.1c0.6,3.7,1.2,7.4,1.8,11.1c0.4,0,0.7,0,1,0
		c7.8,0,15.5,0,23.3,0c2.1,0,3.8,0.8,4.8,2.7c1.9,3.3-0.5,7.4-4.3,7.6c-1.5,0.1-3,0-4.5,0c-5.9,0-11.8,0-17.7,0c-0.3,0-0.6,0-0.9,0
		c0.2,1,0.3,2,0.5,3.1c0.3,0,0.6,0,1,0C44.5,47.9,54.7,48,64.8,48c2.9,0,4.8,1.2,5.9,3.9c3.3,7.9,6.8,15.8,10.2,23.6
		c0.1,0.3,0.3,0.6,0.4,1c1.6-0.6,3.2-1.1,4.8-1.7c1.4-0.5,2.7-1,4.1-1.4c3.1-1,5.9,0.5,6.8,3.6c0,0.1,0.1,0.2,0.2,0.3
		C97.2,77.8,97.2,78.4,97.2,78.9z"/>
	<path class="st0" d="M5.2,63.7c0.3-1.6,0.5-3.3,0.8-4.9C7.2,53.6,9.6,49,13.2,45c2-2.2,5.1-2.5,7.2-0.7c2.2,1.8,2.5,5,0.6,7.3
		c-2.5,3-4.3,6.4-5.1,10.3c-2,10,3.8,20.5,13.4,23.8c8.4,3,15.9,1.3,22.4-4.8c2.1-1.9,3.6-4.3,4.7-6.9c0.7-1.6,1.8-2.6,3.5-3
		c2-0.5,3.7,0,5.1,1.6c1.4,1.5,1.7,3.4,0.9,5.3c-1.2,3-2.9,5.8-5.1,8.3c-3.9,4.6-8.7,7.8-14.4,9.6c-2.2,0.7-4.5,1-6.8,1.4
		c-0.2,0-0.5,0.1-0.7,0.1c-1.4,0-2.9,0-4.3,0c-0.2,0-0.4-0.1-0.6-0.1c-2.2-0.4-4.5-0.6-6.6-1.3C15.3,91.7,8,83.2,5.6,70.6
		c-0.2-0.9-0.2-1.7-0.4-2.6C5.2,66.6,5.2,65.2,5.2,63.7z"/>
</g>
</svg>
