<?xml version="1.0" encoding="utf-8"?>
<!-- Generator: Adobe Illustrator 19.1.0, SVG Export Plug-In . SVG Version: 6.00 Build 0)  -->
<svg version="1.1" id="Layer_1" xmlns="http://www.w3.org/2000/svg" xmlns:xlink="http://www.w3.org/1999/xlink" x="0px" y="0px"
	 viewBox="0 0 100 100" style="enable-background:new 0 0 100 100;" xml:space="preserve">
<style type="text/css">
	.st0{fill:#8C36E3;}
</style>
<path class="st0" d="M29,97.5l46.9,0c1.7,0,3-0.6,4-1.7c1-1.2,1.5-2.9,1.5-5c0-2.1-0.5-3.8-1.5-4.9c-1-1.1-2.3-1.7-4-1.7l-35.7,0
	l-0.8-1.1l0.4-0.5c2.9-3.9,5.1-7.9,6.4-12.1c1.3-4.1,1.8-8.7,1.4-13.7l-0.1-1l19.3,0c1.8,0,3.1-0.5,4-1.5c0.9-1,1.4-2.5,1.4-4.5
	c0-2-0.5-3.5-1.4-4.5c-0.9-1-2.2-1.5-4-1.5l-21.5,0L45,43.1c-0.3-1-0.5-2-0.8-3c-0.2-1-0.5-2-0.7-3c-0.2-1-0.4-2.1-0.5-3.1
	c-0.1-1-0.2-2.2-0.2-3.4c0-2.2,0.4-4.2,1.1-6c0.7-1.8,1.8-3.4,3.2-4.7c1.4-1.3,3.1-2.3,5.2-3c2-0.7,4.4-1,7.1-1
	c1.8,0,3.3,0.2,4.6,0.5c1.3,0.3,2.4,0.6,3.4,1l2.7,1c0.7,0.3,1.5,0.4,2.3,0.4c0.7,0,1.5-0.1,2.1-0.4c0.6-0.3,1.2-0.7,1.7-1.1
	c0.5-0.5,0.9-1.1,1.1-1.7c0.3-0.6,0.4-1.4,0.4-2.2c0-1.2-0.2-2.2-0.5-3.1c-0.4-0.8-0.9-1.6-1.7-2.4c-0.5-0.5-1.1-1-2-1.5
	c-0.9-0.5-2-1-3.3-1.5c-1.3-0.4-2.8-0.8-4.6-1.1c-1.7-0.3-3.7-0.4-5.9-0.4c-5.3,0-10,0.7-14.2,2.2c-4.1,1.5-7.7,3.5-10.5,6
	c-2.9,2.5-5.1,5.5-6.6,8.9c-1.5,3.4-2.3,7.1-2.3,11c0,2.2,0.2,4.2,0.6,6l1.4,6.2h-4c-1.7,0-3,0.5-4,1.5c-0.9,1-1.4,2.6-1.4,4.5
	c0,2,0.5,3.5,1.4,4.5c0.9,1,2.2,1.5,4,1.5l6.3,0l0.1,0.8c0.3,2.6,0.3,5.1,0,7.4c-0.4,2.2-0.9,4.3-1.6,6.2c-0.7,1.9-1.6,3.7-2.6,5.3
	c-1,1.6-2,3.1-2.9,4.4c-0.6,0.9-1.2,1.7-1.6,2.5c-0.4,0.7-0.8,1.4-1.1,2.2c-0.3,0.7-0.5,1.4-0.6,2.1c-0.1,0.8-0.2,1.6-0.2,2.4
	c0,2.6,0.8,4.6,2.3,6.1C23.8,96.8,26.1,97.5,29,97.5z"/>
</svg>
