<?xml version="1.0" encoding="utf-8"?>
<!-- Generator: Adobe Illustrator 19.1.0, SVG Export Plug-In . SVG Version: 6.00 Build 0)  -->
<svg version="1.1" id="Layer_1" xmlns="http://www.w3.org/2000/svg" xmlns:xlink="http://www.w3.org/1999/xlink" x="0px" y="0px"
	 viewBox="0 0 100 100" style="enable-background:new 0 0 100 100;" xml:space="preserve">
<style type="text/css">
	.st0{fill:#8C36E3;}
</style>
<g>
	<path class="st0" d="M87.3,42.5c-5.5-12.2-20.4-20.9-37.8-20.9s-32.3,8.7-37.8,20.9c-5.5,0.4-9.9,4.9-9.9,10.5s4.4,10.2,9.9,10.5
		C17.2,75.8,32,84.5,49.5,84.5c17.5,0,32.3-8.7,37.8-20.9c5.5-0.4,9.9-4.9,9.9-10.5S92.8,42.9,87.3,42.5z M30,47
		c0-3.1,2.5-5.7,5.7-5.7s5.7,2.5,5.7,5.7c0,3.1-2.5,5.7-5.7,5.7S30,50.1,30,47z M63.2,64.5c-3.7,4.5-8,6.9-12.7,7.1
		c-0.1,0-0.3,0-0.4,0c-8.1,0-14.4-6.7-14.7-7c-0.5-0.6-0.5-1.4,0.1-1.9c0.6-0.5,1.4-0.5,1.9,0.1c0.1,0.1,5.9,6.3,13.1,6.1
		c3.9-0.1,7.4-2.2,10.7-6.1c0.5-0.6,1.3-0.7,1.9-0.2C63.6,63.1,63.7,64,63.2,64.5z M65.2,52.7c-3.1,0-5.7-2.5-5.7-5.7
		c0-3.1,2.5-5.7,5.7-5.7c3.1,0,5.7,2.5,5.7,5.7C70.9,50.1,68.4,52.7,65.2,52.7z"/>
	<path class="st0" d="M67.1,20.9c-0.2-0.7-0.6-1.5-1.2-2.2c-0.6-0.7-1.3-1.3-1.9-1.6c0,0-0.1,0-0.1,0c-1.3-1.5-2.8-2.3-4.6-2.4
		c-3.6-0.2-7,2.8-8.9,4.8c-1.9-2-5.4-5-8.9-4.8c-1.7,0.1-3.3,0.9-4.6,2.4c0,0-0.1,0-0.1,0c-0.7,0.3-1.3,0.9-1.9,1.6
		c-0.6,0.7-1,1.5-1.2,2.2c-0.2,0.8-0.1,1.4,0.3,1.7c0.2,0.2,0.5,0.3,0.8,0.3c0.3,0,0.6-0.1,1-0.3c0.7-0.3,1.3-0.9,1.9-1.6
		c0.8-1,1.2-2,1.2-2.8c0.8-0.8,1.7-1.3,2.7-1.3c3.3-0.2,7.2,4,8.4,5.6l0.3-0.3l0.3,0.3c1.2-1.6,5.1-5.8,8.4-5.6
		c1,0.1,1.9,0.5,2.7,1.3c0,0.8,0.4,1.8,1.2,2.8c0.6,0.7,1.3,1.3,1.9,1.6c0.4,0.2,0.7,0.3,1,0.3c0.3,0,0.6-0.1,0.8-0.3
		C67.2,22.3,67.3,21.7,67.1,20.9z"/>
</g>
</svg>
