<?xml version="1.0" encoding="utf-8"?>
<!-- Generator: Adobe Illustrator 19.1.0, SVG Export Plug-In . SVG Version: 6.00 Build 0)  -->
<svg version="1.1" id="Layer_1" xmlns="http://www.w3.org/2000/svg" xmlns:xlink="http://www.w3.org/1999/xlink" x="0px" y="0px"
	 viewBox="0 0 100 100" style="enable-background:new 0 0 100 100;" xml:space="preserve">
<style type="text/css">
	.st0{fill:#8C36E3;}
</style>
<path class="st0" d="M79.8,3H20.5C9.9,3,1.3,11.6,1.3,22.2v33.5c0,10.6,8.6,19.2,19.2,19.2H30v23.7l26.1-23.7h23.6
	c10.6,0,19.2-8.6,19.2-19.2V22.2C99,11.6,90.4,3,79.8,3z M25.7,46.3c-4,0-7.2-3.2-7.2-7.2s3.2-7.2,7.2-7.2c4,0,7.2,3.2,7.2,7.2
	S29.7,46.3,25.7,46.3z M50.3,46.3c-4,0-7.2-3.2-7.2-7.2s3.2-7.2,7.2-7.2s7.2,3.2,7.2,7.2S54.3,46.3,50.3,46.3z M74.9,46.3
	c-4,0-7.2-3.2-7.2-7.2s3.2-7.2,7.2-7.2c4,0,7.2,3.2,7.2,7.2S78.9,46.3,74.9,46.3z"/>
</svg>
