<?xml version="1.0" encoding="utf-8"?>
<!-- Generator: Adobe Illustrator 19.1.0, SVG Export Plug-In . SVG Version: 6.00 Build 0)  -->
<svg version="1.1" id="Layer_1" xmlns="http://www.w3.org/2000/svg" xmlns:xlink="http://www.w3.org/1999/xlink" x="0px" y="0px"
	 viewBox="0 0 100 100" style="enable-background:new 0 0 100 100;" xml:space="preserve">
<style type="text/css">
	.st0{fill:#8C36E3;}
</style>
<path class="st0" d="M79.2,2.2h-59C9.6,2.2,1,10.8,1,21.4v33.3c0,10.6,8.6,19.2,19.2,19.2h9.5v23.6l26-23.6h23.6
	c10.6,0,19.2-8.6,19.2-19.2V21.4C98.3,10.8,89.8,2.2,79.2,2.2z M25.3,45.4c-4,0-7.2-3.2-7.2-7.2s3.2-7.2,7.2-7.2
	c4,0,7.2,3.2,7.2,7.2S29.2,45.4,25.3,45.4z M49.8,45.4c-4,0-7.2-3.2-7.2-7.2s3.2-7.2,7.2-7.2s7.2,3.2,7.2,7.2S53.8,45.4,49.8,45.4z
	 M74.3,45.4c-4,0-7.2-3.2-7.2-7.2s3.2-7.2,7.2-7.2c4,0,7.2,3.2,7.2,7.2S78.3,45.4,74.3,45.4z"/>
</svg>
