<?xml version="1.0" encoding="utf-8"?>
<!-- Generator: Adobe Illustrator 19.1.0, SVG Export Plug-In . SVG Version: 6.00 Build 0)  -->
<svg version="1.1" id="Layer_1" xmlns="http://www.w3.org/2000/svg" xmlns:xlink="http://www.w3.org/1999/xlink" x="0px" y="0px"
	 viewBox="-370 248.3 100 100" style="enable-background:new -370 248.3 100 100;" xml:space="preserve">
<style type="text/css">
	.st0{fill:#8C36E3;}
	.st1{fill:#8B17E3;}
</style>
<g>
	<g>
		<path class="st0" d="M-319.6,346.2c-26.7,0-48.4-21.7-48.4-48.4s21.7-48.4,48.4-48.4c26.7,0,48.4,21.7,48.4,48.4
			S-293,346.2-319.6,346.2z M-319.6,259.1c-21.4,0-38.8,17.4-38.8,38.8s17.4,38.7,38.8,38.7s38.8-17.4,38.8-38.8
			S-298.3,259.1-319.6,259.1z"/>
	</g>
</g>
<g>
	<path class="st1" d="M-308.9,322.2c-2,0-3.6-0.2-4.5-0.7c-0.8-0.4-0.9-0.7-0.9-1.2c0,0,0,0,0-0.1v-33.1c0-0.8-0.7-1.5-1.5-1.5
		l-13.7,0c-0.8,0-1.5,0.7-1.5,1.5v2.5c0,0.8,0.7,1.5,1.5,1.5c3.5,0,5.3,0.7,5.3,2.1v27c0,1.7-2.9,2-5.3,2c-0.8,0-1.5,0.7-1.5,1.5
		v2.7c0,0.8,0.7,1.5,1.5,1.5h20.6c0.8,0,1.5-0.7,1.5-1.5v-2.7C-307.5,322.8-308.1,322.2-308.9,322.2z"/>
	<path class="st1" d="M-320,279.9c1.7,0,3.2-0.6,4.5-1.9c1.2-1.3,1.8-2.8,1.8-4.5c0-1.7-0.6-3.2-1.9-4.5c-1.2-1.2-2.7-1.8-4.5-1.8
		c-1.7,0-3.2,0.6-4.5,1.8c-1.3,1.2-1.9,2.7-1.9,4.5c0,1.7,0.6,3.3,1.9,4.5C-323.2,279.2-321.7,279.9-320,279.9z"/>
</g>
</svg>
