<?xml version="1.0" encoding="utf-8"?>
<!-- Generator: Adobe Illustrator 19.1.0, SVG Export Plug-In . SVG Version: 6.00 Build 0)  -->
<svg version="1.1" id="Layer_1" xmlns="http://www.w3.org/2000/svg" xmlns:xlink="http://www.w3.org/1999/xlink" x="0px" y="0px"
	 viewBox="0 0 100 100" style="enable-background:new 0 0 100 100;" xml:space="preserve">
<style type="text/css">
	.st0{fill:#8C36E3;}
</style>
<g>
	<g>
		<path class="st0" d="M50.4,97.9C23.7,97.9,2,76.2,2,49.5C2,22.8,23.7,1.1,50.4,1.1c26.7,0,48.4,21.7,48.4,48.4
			C98.8,76.2,77,97.9,50.4,97.9z M50.4,10.8c-21.4,0-38.8,17.4-38.8,38.8S29,88.3,50.4,88.3s38.8-17.4,38.8-38.8
			S71.7,10.8,50.4,10.8z"/>
	</g>
	<g>
		<path class="st0" d="M63.1,66.5c-1.2,0-2.3-0.4-3.2-1.3l-14-13.8V18.3c0-2.5,2-4.6,4.6-4.6c2.5,0,4.6,2,4.6,4.6v29.3l11.3,11.2
			c1.8,1.8,1.8,4.7,0,6.4C65.4,66.1,64.3,66.5,63.1,66.5z"/>
	</g>
</g>
</svg>
