<?xml version="1.0" encoding="utf-8"?>
<!-- Generator: Adobe Illustrator 19.1.0, SVG Export Plug-In . SVG Version: 6.00 Build 0)  -->
<svg version="1.1" id="Layer_1" xmlns="http://www.w3.org/2000/svg" xmlns:xlink="http://www.w3.org/1999/xlink" x="0px" y="0px"
	 viewBox="0 0 100 100" style="enable-background:new 0 0 100 100;" xml:space="preserve">
<style type="text/css">
	.st0{fill:#8C36E3;}
</style>
<g>
	<g>
		<path class="st0" d="M50.5,97.2c-25.8,0-46.9-21-46.9-46.9c0-25.8,21-46.9,46.9-46.9c25.8,0,46.9,21,46.9,46.9
			C97.4,76.1,76.4,97.2,50.5,97.2z M50.5,12.7C29.8,12.7,13,29.6,13,50.3s16.8,37.6,37.6,37.6S88.1,71,88.1,50.3
			S71.2,12.7,50.5,12.7z"/>
	</g>
	<g>
		<path class="st0" d="M62.8,66.8c-1.1,0-2.2-0.4-3.1-1.3L46.2,52.1V20c0-2.4,2-4.4,4.4-4.4c2.4,0,4.4,2,4.4,4.4v28.4l10.9,10.8
			c1.7,1.7,1.7,4.5,0,6.2C65.1,66.3,64,66.8,62.8,66.8z"/>
	</g>
</g>
</svg>
