<?xml version="1.0" encoding="utf-8"?>
<!-- Generator: Adobe Illustrator 19.1.0, SVG Export Plug-In . SVG Version: 6.00 Build 0)  -->
<svg version="1.1" id="Layer_1" xmlns="http://www.w3.org/2000/svg" xmlns:xlink="http://www.w3.org/1999/xlink" x="0px" y="0px"
	 viewBox="0 0 100 100" style="enable-background:new 0 0 100 100;" xml:space="preserve">
<style type="text/css">
	.st0{fill:#8C36E3;}
</style>
<path class="st0" d="M96.7,79.1c-0.6,2.5-2.2,3.8-4.6,4.6C88,85.1,84,86.6,80,88c-3.3,1.2-5.9,0-7.3-3.2c-3.7-8.7-7.5-17.3-11.2-26
	c-0.3-0.6-0.6-0.8-1.2-0.8c-10.9-0.1-21.7-0.1-32.6-0.2c-2.7,0-4.7-1.2-5.3-3.4c-0.5-1.5-0.7-3.2-0.9-4.8c-1.3-8.2-2.7-16.4-4-24.6
	c-0.7-4.1-1.4-8.2-1.9-12.4c-0.7-5.4,3.4-10.6,8.8-11.5c0.2,0,0.3-0.1,0.5-0.2c0.9,0,1.7,0,2.6,0c0.8,0.2,1.5,0.4,2.3,0.6
	c4.8,1.7,7.6,6.1,7.2,11.2c-0.3,4.6-4,8.6-8.8,9.5c-0.1,0-0.3,0.1-0.5,0.1c0.6,3.8,1.2,7.5,1.8,11.3c0.4,0,0.7,0,1,0
	c7.9,0,15.8,0,23.8,0c2.2,0,3.9,0.8,4.9,2.7c1.9,3.4-0.5,7.6-4.4,7.7c-1.5,0.1-3,0-4.6,0c-6,0-12,0-18.1,0c-0.3,0-0.6,0-1,0
	c0.2,1.1,0.3,2,0.5,3.1c0.3,0,0.7,0,1,0c10.4,0.1,20.8,0.2,31.2,0.2c3,0,4.9,1.2,6,4c3.4,8.1,6.9,16.1,10.4,24.1
	c0.1,0.3,0.3,0.6,0.4,1c1.7-0.6,3.3-1.2,4.9-1.7c1.4-0.5,2.7-1,4.1-1.5c3.2-1.1,6,0.5,7,3.7c0,0.1,0.1,0.2,0.2,0.3
	C96.7,78,96.7,78.6,96.7,79.1z"/>
<path class="st0" d="M3,63.6c0.3-1.7,0.5-3.3,0.8-5c1.2-5.3,3.6-10.1,7.3-14.2c2-2.3,5.2-2.5,7.4-0.7c2.2,1.9,2.5,5.1,0.6,7.4
	c-2.6,3.1-4.4,6.5-5.2,10.5c-2,10.2,3.9,20.8,13.7,24.3c8.5,3,16.2,1.3,22.9-4.9c2.1-2,3.6-4.4,4.8-7c0.7-1.6,1.9-2.7,3.6-3.1
	c2-0.5,3.8,0,5.2,1.6c1.4,1.6,1.8,3.4,1,5.4c-1.3,3.1-3,5.9-5.2,8.5c-4,4.6-8.8,8-14.7,9.8c-2.2,0.7-4.6,1-6.9,1.4
	c-0.2,0-0.5,0.1-0.7,0.1c-1.5,0-2.9,0-4.4,0c-0.2,0-0.4-0.1-0.6-0.1c-2.3-0.4-4.6-0.6-6.7-1.4C13.2,92.2,5.8,83.5,3.4,70.7
	C3.2,69.8,3.1,68.9,3,68C3,66.6,3,65.1,3,63.6z"/>
</svg>
