<?xml version="1.0" encoding="utf-8"?>
<!-- Generator: Adobe Illustrator 19.1.0, SVG Export Plug-In . SVG Version: 6.00 Build 0)  -->
<svg version="1.1" id="Layer_1" xmlns="http://www.w3.org/2000/svg" xmlns:xlink="http://www.w3.org/1999/xlink" x="0px" y="0px"
	 viewBox="0 0 100 100" style="enable-background:new 0 0 100 100;" xml:space="preserve">
<style type="text/css">
	.st0{fill:#8C36E3;}
</style>
<path class="st0" d="M28.3,98.2l47.9,0c1.7,0,3.1-0.6,4.1-1.7c1-1.2,1.5-2.9,1.5-5.1c0-2.2-0.5-3.9-1.5-5c-1-1.2-2.3-1.7-4.1-1.7
	l-36.5,0L39,83.4l0.4-0.5c3-3.9,5.2-8.1,6.5-12.4c1.3-4.2,1.8-8.9,1.4-14l-0.1-1l19.7,0c1.8,0,3.2-0.5,4.1-1.5c1-1,1.4-2.6,1.4-4.6
	c0-2-0.5-3.6-1.5-4.6c-1-1.1-2.3-1.6-4.1-1.6l-22,0l-0.2-0.7c-0.3-1-0.5-2.1-0.8-3.1c-0.2-1-0.5-2-0.7-3c-0.2-1-0.4-2.1-0.5-3.2
	c-0.1-1.1-0.2-2.2-0.2-3.5c0-2.2,0.4-4.3,1.1-6.1c0.7-1.9,1.8-3.5,3.3-4.8c1.4-1.3,3.2-2.3,5.3-3c2.1-0.7,4.5-1,7.2-1
	c1.8,0,3.4,0.2,4.7,0.5c1.3,0.3,2.5,0.7,3.5,1l2.7,1c0.7,0.3,1.5,0.4,2.3,0.4c0.8,0,1.5-0.1,2.1-0.4c0.7-0.3,1.2-0.7,1.7-1.2
	c0.5-0.5,0.9-1.1,1.2-1.8c0.3-0.7,0.4-1.4,0.4-2.2c0-1.2-0.2-2.3-0.6-3.1c-0.4-0.9-1-1.7-1.7-2.4c-0.5-0.5-1.2-1-2.1-1.5
	c-0.9-0.6-2-1.1-3.3-1.5c-1.3-0.5-2.9-0.8-4.7-1.1C64,2.2,62,2,59.8,2c-5.4,0-10.2,0.8-14.5,2.3c-4.2,1.5-7.8,3.6-10.8,6.2
	c-2.9,2.6-5.2,5.7-6.7,9.1c-1.5,3.5-2.3,7.3-2.3,11.2c0,2.3,0.2,4.3,0.6,6.1l1.5,6.3h-4.1c-1.8,0-3.1,0.5-4,1.6
	c-1,1.1-1.5,2.6-1.5,4.6c0,2,0.5,3.6,1.4,4.6c1,1,2.3,1.5,4,1.5l6.4,0l0.1,0.8c0.3,2.7,0.3,5.2,0,7.5c-0.4,2.3-0.9,4.4-1.7,6.4
	c-0.7,2-1.6,3.8-2.7,5.4c-1,1.6-2,3.1-3,4.5c-0.6,0.9-1.2,1.8-1.7,2.5c-0.4,0.7-0.8,1.5-1.1,2.2c-0.3,0.7-0.5,1.4-0.6,2.2
	c-0.1,0.8-0.2,1.6-0.2,2.5c0,2.6,0.8,4.7,2.4,6.3C23,97.4,25.3,98.2,28.3,98.2z"/>
</svg>
