<?xml version="1.0" encoding="utf-8"?>
<!-- Generator: Adobe Illustrator 17.0.0, SVG Export Plug-In . SVG Version: 6.00 Build 0)  -->
<!DOCTYPE svg PUBLIC "-//W3C//DTD SVG 1.1//EN" "http://www.w3.org/Graphics/SVG/1.1/DTD/svg11.dtd">
<svg version="1.1" id="Layer_1" xmlns="http://www.w3.org/2000/svg" xmlns:xlink="http://www.w3.org/1999/xlink" x="0px" y="0px"
	 width="2576px" height="664px" viewBox="0 0 2576 664" enable-background="new 0 0 2576 664" xml:space="preserve">
<path fill="#001FB7" d="M1589.554,146.824h-261.921c-46.966,0-85.039,38.073-85.039,85.039v147.921
	c0,46.966,38.073,85.039,85.039,85.039h41.96v104.667l115.432-104.667h104.528c46.966,0,85.039-38.073,85.039-85.039V231.863
	C1674.594,184.898,1636.52,146.824,1589.554,146.824z M1350.261,338.404c-17.673,0-32-14.327-32-32s14.327-32,32-32
	c17.673,0,32,14.327,32,32S1367.934,338.404,1350.261,338.404z M1459.094,338.404c-17.673,0-32-14.327-32-32s14.327-32,32-32
	c17.673,0,32,14.327,32,32S1476.767,338.404,1459.094,338.404z M1567.927,338.404c-17.673,0-32-14.327-32-32s14.327-32,32-32
	c17.673,0,32,14.327,32,32S1585.6,338.404,1567.927,338.404z"/>
<g>
	<g>
		<path fill="#001FB7" d="M345.064,569.491c-117.308,0-212.745-95.437-212.745-212.746C132.319,239.437,227.756,144,345.064,144
			c117.309,0,212.746,95.437,212.746,212.745C557.81,474.054,462.373,569.491,345.064,569.491z M345.064,186.299
			c-93.984,0-170.446,76.462-170.446,170.446s76.462,170.447,170.446,170.447s170.447-76.462,170.447-170.447
			S439.049,186.299,345.064,186.299z"/>
	</g>
	<g>
		<path fill="#001FB7" d="M400.929,431.577c-5.092,0-10.184-1.928-14.09-5.792l-61.568-60.898V219.37
			c0-11.066,8.971-20.037,20.037-20.037s20.037,8.971,20.037,20.037v128.789l49.675,49.136c7.867,7.782,7.937,20.468,0.155,28.335
			C411.256,429.592,406.093,431.576,400.929,431.577z"/>
	</g>
</g>
<path fill="#001FB7" d="M787.51,379.426h51.506c3.727,7.626,6.622,15.812,8.678,24.571c2.047,8.768,3.079,18.098,3.079,28
	c0,8.768-1.871,17.626-5.598,26.571c-3.735,8.955-8.494,17.526-14.277,25.714c-5.79,8.197-12.317,15.812-19.595,22.857
	c-7.278,7.054-14.276,12.857-20.994,17.428l29.672,46.285c7.086-6.098,15.86-10.857,26.313-14.286
	c10.446-3.429,20.523-5.143,30.233-5.143c10.445,0,20.522,1.143,30.232,3.429c9.701,2.286,19.219,4.955,28.552,8
	c9.702,1.518,19.123,3.33,28.273,5.429c9.142,2.09,18.195,3.143,27.153,3.143c18.283,0,34.239-2.286,47.868-6.857
	c13.62-4.571,27.52-12.946,41.709-25.143l-28.553-44c-7.838,6.857-16.236,12.197-25.193,16c-8.958,3.812-18.668,5.714-29.113,5.714
	c-8.59,0-16.052-1.045-22.394-3.143c-6.35-2.089-12.693-4.473-19.035-7.143c-6.35-2.286-13.069-4.473-20.155-6.571
	c-7.094-2.089-15.492-3.143-25.193-3.143c-9.334,0-18.108,1.714-26.313,5.143c-8.214,3.429-16.612,6.857-25.194,10.286l-1.12-1.143
	c7.462-5.714,14.644-11.803,21.555-18.285c6.902-6.473,12.964-13.616,18.195-21.428c5.223-7.803,9.326-16.187,12.317-25.143
	c2.983-8.946,4.479-18.571,4.479-28.857c0-14.088-2.992-26.857-8.958-38.285h68.862v-37.142h-82.299
	c-5.974-11.045-11.756-23.33-17.355-36.857c-5.599-13.517-8.398-26.945-8.398-40.285c0-21.714,6.063-38.285,18.195-49.714
	c12.125-11.428,26.777-17.143,43.949-17.143c13.437,0,24.914,2.197,34.431,6.571c9.518,4.384,17.164,10.483,22.954,18.286
	c5.783,7.812,10.078,17.054,12.877,27.714c2.799,10.669,4.567,22.098,5.319,34.285h63.823
	c-0.376-47.231-13.157-82.571-38.35-105.999C1004.454,155.714,970.39,144,927.474,144c-16.428,0-32.471,2.769-48.147,8.286
	c-15.676,5.527-29.673,13.428-41.989,23.714c-12.317,10.286-22.211,22.669-29.673,37.142c-7.47,14.483-11.197,30.669-11.197,48.571
	c0,13.714,2.24,27.911,6.718,42.571c4.479,14.669,11.006,27.34,19.595,38h-35.27V379.426z"/>
<g>
	<path fill="#001FB7" d="M2127.087,387.222l268.683-162.166v-23.428c0-18.573-14.716-33.629-32.868-33.629h-473.434
		c-18.152,0-32.868,15.056-32.868,33.629v22.339L2127.087,387.222z"/>
	<path fill="#001FB7" d="M2137.44,428.649c-2.697,2.474-6.248,3.94-10.063,3.94h-0.58c-3.816,0-7.366-1.467-10.063-3.94
		l-260.134-157.006v240.399c0,18.573,14.715,33.629,32.868,33.629h473.434c18.152,0,32.868-15.056,32.868-33.629v-239.31
		L2137.44,428.649z"/>
</g>
</svg>
